# xmcd
#
# Track frame offsets:
#	150
#	12090
#	23430
#	33775
#	44900
#	55622
#	69515
#	82210
#	93930
#	107445
#
# Disc length: 1593
#
# Revision: 4
# Processed by: cddbd v1.5.2PL0 Copyright (c) Steve Scherf et al.
# Submitted via: Broken X Disk Manager 4.02.2262
#
DISCID=7006370a
DTITLE=Buck Owens - Hot Dog
DYEAR=1988
DGENRE=Country
TTITLE0=Don't Let Her Know
TTITLE1=A-11
TTITLE2=Summertime Blues
TTITLE3=Memphis Blues
TTITLE4=Hot Dog
TTITLE5=Put A Quarter In The Jukebox
TTITLE6=Under Your Spell Again (Duet With Dwight Yoakam)
TTITLE7=Second Fiddle
TTITLE8=Sweethearts In Heaven
TTITLE9=Keys In The Mailbox
EXTD=
EXTT0=
EXTT1=
EXTT2=
EXTT3=
EXTT4=
EXTT5=
EXTT6=
EXTT7=
EXTT8=
EXTT9=
PLAYORDER=
